<svg width="16" height="16" viewBox="0 0 16 16" fill="none" xmlns="http://www.w3.org/2000/svg">
<path d="M10.6562 11.3438V7.34375C10.6562 6.48958 10.4167 5.78125 9.9375 5.21875C9.45833 4.63542 8.8125 4.34375 8 4.34375C7.1875 4.34375 6.54167 4.63542 6.0625 5.21875C5.58333 5.78125 5.34375 6.48958 5.34375 7.34375V11.3438H10.6562ZM12 10.6562L13.3438 12V12.6562H2.65625V12L4 10.6562V7.34375C4 6.30208 4.26042 5.39583 4.78125 4.625C5.32292 3.85417 6.0625 3.35417 7 3.125V2.65625C7 2.38542 7.09375 2.15625 7.28125 1.96875C7.46875 1.76042 7.70833 1.65625 8 1.65625C8.29167 1.65625 8.53125 1.76042 8.71875 1.96875C8.90625 2.15625 9 2.38542 9 2.65625V3.125C9.9375 3.35417 10.6667 3.85417 11.1875 4.625C11.7292 5.39583 12 6.30208 12 7.34375V10.6562ZM8.9375 14.2812C8.66667 14.5312 8.35417 14.6562 8 14.6562C7.64583 14.6562 7.33333 14.5312 7.0625 14.2812C6.79167 14.0104 6.65625 13.6979 6.65625 13.3438H9.34375C9.34375 13.6979 9.20833 14.0104 8.9375 14.2812Z" fill="#1AA5B8"/>
</svg>
