
<svg width="24" height="24" viewBox="0 0 24 24" fill="none" xmlns="http://www.w3.org/2000/svg">
<path opacity="0.2" d="M15.9844 17.0156V11.0156C15.9844 9.73438 15.625 8.67188 14.9062 7.82812C14.1875 6.95312 13.2188 6.51562 12 6.51562C10.7812 6.51562 9.8125 6.95312 9.09375 7.82812C8.375 8.67188 8.01562 9.73438 8.01562 11.0156V17.0156H15.9844ZM18 15.9844L20.0156 18V18.9844H3.98438V18L6 15.9844V11.0156C6 9.45312 6.39062 8.09375 7.17188 6.9375C7.98438 5.78125 9.09375 5.03125 10.5 4.6875V3.98438C10.5 3.57812 10.6406 3.23438 10.9219 2.95312C11.2031 2.64062 11.5625 2.48438 12 2.48438C12.4375 2.48438 12.7969 2.64062 13.0781 2.95312C13.3594 3.23438 13.5 3.57812 13.5 3.98438V4.6875C14.9062 5.03125 16 5.78125 16.7812 6.9375C17.5938 8.09375 18 9.45312 18 11.0156V15.9844ZM13.4062 21.4219C13 21.7969 12.5312 21.9844 12 21.9844C11.4688 21.9844 11 21.7969 10.5938 21.4219C10.1875 21.0156 9.98438 20.5469 9.98438 20.0156H14.0156C14.0156 20.5469 13.8125 21.0156 13.4062 21.4219Z" fill="black"/>
</svg>
