<svg width="119" height="24" viewBox="0 0 119 24" fill="none" xmlns="http://www.w3.org/2000/svg">
<path d="M88.3994 8.216C88.3994 8.656 88.3354 9.056 88.2074 9.416C88.0874 9.768 87.9154 10.072 87.6914 10.328C87.4674 10.584 87.1994 10.784 86.8874 10.928C86.5754 11.064 86.2354 11.132 85.8674 11.132C85.5074 11.132 85.1714 11.064 84.8594 10.928C84.5554 10.784 84.2914 10.584 84.0674 10.328C83.8434 10.072 83.6674 9.768 83.5394 9.416C83.4194 9.056 83.3594 8.656 83.3594 8.216C83.3594 7.776 83.4194 7.376 83.5394 7.016C83.6674 6.656 83.8434 6.352 84.0674 6.104C84.2914 5.848 84.5554 5.652 84.8594 5.516C85.1714 5.372 85.5074 5.3 85.8674 5.3C86.2354 5.3 86.5754 5.372 86.8874 5.516C87.1994 5.652 87.4674 5.848 87.6914 6.104C87.9154 6.352 88.0874 6.656 88.2074 7.016C88.3354 7.376 88.3994 7.776 88.3994 8.216ZM87.3794 8.216C87.3794 7.584 87.2434 7.088 86.9714 6.728C86.6994 6.36 86.3314 6.176 85.8674 6.176C85.4114 6.176 85.0474 6.36 84.7754 6.728C84.5114 7.088 84.3794 7.584 84.3794 8.216C84.3794 8.84 84.5114 9.336 84.7754 9.704C85.0474 10.064 85.4114 10.244 85.8674 10.244C86.3314 10.244 86.6994 10.064 86.9714 9.704C87.2434 9.336 87.3794 8.84 87.3794 8.216ZM90.4874 6.068C90.6954 5.892 90.9354 5.756 91.2074 5.66C91.4794 5.564 91.7474 5.516 92.0114 5.516C92.8034 5.516 93.3994 5.76 93.7994 6.248C94.1994 6.736 94.3994 7.416 94.3994 8.288C94.3994 8.664 94.3474 9.024 94.2434 9.368C94.1474 9.712 93.9954 10.016 93.7874 10.28C93.5874 10.544 93.3274 10.756 93.0074 10.916C92.6874 11.068 92.3114 11.144 91.8794 11.144C91.3834 11.144 90.9754 11.052 90.6554 10.868C90.3434 10.676 90.0954 10.42 89.9114 10.1C89.7274 9.78 89.5994 9.408 89.5274 8.984C89.4554 8.552 89.4194 8.096 89.4194 7.616C89.4194 6.992 89.4594 6.416 89.5394 5.888C89.6274 5.352 89.7874 4.88 90.0194 4.472C90.2514 4.064 90.5674 3.728 90.9674 3.464C91.3754 3.192 91.8994 3.008 92.5394 2.912C92.7394 2.88 92.9074 2.856 93.0434 2.84C93.1874 2.816 93.3154 2.796 93.4274 2.78C93.5394 2.764 93.6394 2.752 93.7274 2.744C93.8154 2.728 93.9074 2.708 94.0034 2.684L94.1114 3.548C94.0634 3.564 94.0114 3.58 93.9554 3.596C93.8994 3.604 93.8234 3.616 93.7274 3.632C93.6314 3.64 93.5034 3.656 93.3434 3.68C93.1914 3.696 92.9914 3.716 92.7434 3.74C92.0554 3.828 91.5274 4.052 91.1594 4.412C90.7914 4.764 90.5674 5.316 90.4874 6.068ZM90.4274 7.772C90.4274 8.108 90.4474 8.428 90.4874 8.732C90.5274 9.036 90.5994 9.308 90.7034 9.548C90.8154 9.78 90.9634 9.964 91.1474 10.1C91.3394 10.236 91.5834 10.304 91.8794 10.304C92.1434 10.304 92.3714 10.252 92.5634 10.148C92.7554 10.036 92.9114 9.888 93.0314 9.704C93.1514 9.52 93.2394 9.308 93.2954 9.068C93.3594 8.82 93.3914 8.56 93.3914 8.288C93.3914 8.048 93.3674 7.812 93.3194 7.58C93.2714 7.34 93.1874 7.132 93.0674 6.956C92.9474 6.772 92.7874 6.624 92.5874 6.512C92.3874 6.4 92.1354 6.344 91.8314 6.344C91.5434 6.344 91.2714 6.416 91.0154 6.56C90.7674 6.696 90.5714 6.856 90.4274 7.04V7.772ZM96.3074 6.896C96.2434 7.624 96.2074 8.336 96.1994 9.032C96.1994 9.72 96.1874 10.376 96.1634 11H95.2034C95.2114 10.56 95.2274 10.104 95.2514 9.632C95.2834 9.16 95.3154 8.684 95.3474 8.204C95.3874 7.724 95.4274 7.248 95.4674 6.776C95.5154 6.304 95.5634 5.856 95.6114 5.432H96.5354C96.6874 5.816 96.8674 6.296 97.0754 6.872C97.2834 7.448 97.5474 8.136 97.8674 8.936C98.1954 8.136 98.4634 7.448 98.6714 6.872C98.8874 6.296 99.0754 5.816 99.2354 5.432H100.147C100.195 5.856 100.239 6.304 100.279 6.776C100.327 7.248 100.367 7.724 100.399 8.204C100.439 8.684 100.471 9.16 100.495 9.632C100.519 10.104 100.539 10.56 100.555 11H99.5954C99.5714 10.376 99.5514 9.704 99.5354 8.984C99.5274 8.264 99.4954 7.568 99.4394 6.896C99.3354 7.144 99.2394 7.376 99.1514 7.592C99.0714 7.8 98.9914 8.016 98.9114 8.24C98.8394 8.464 98.7594 8.704 98.6714 8.96C98.5834 9.208 98.4794 9.5 98.3594 9.836H97.3754C97.2634 9.5 97.1634 9.208 97.0754 8.96C96.9874 8.704 96.9034 8.464 96.8234 8.24C96.7514 8.016 96.6714 7.8 96.5834 7.592C96.5034 7.376 96.4114 7.144 96.3074 6.896ZM103.987 5.3C104.739 5.3 105.319 5.536 105.727 6.008C106.135 6.472 106.339 7.18 106.339 8.132V8.48H102.355C102.395 9.056 102.583 9.496 102.919 9.8C103.263 10.096 103.743 10.244 104.359 10.244C104.711 10.244 105.011 10.216 105.259 10.16C105.507 10.104 105.695 10.044 105.823 9.98L105.955 10.82C105.835 10.884 105.619 10.952 105.307 11.024C104.995 11.096 104.643 11.132 104.251 11.132C103.771 11.132 103.347 11.06 102.979 10.916C102.619 10.764 102.319 10.56 102.079 10.304C101.839 10.048 101.659 9.744 101.539 9.392C101.419 9.032 101.359 8.644 101.359 8.228C101.359 7.732 101.435 7.3 101.587 6.932C101.739 6.564 101.939 6.26 102.187 6.02C102.435 5.78 102.715 5.6 103.027 5.48C103.339 5.36 103.659 5.3 103.987 5.3ZM105.331 7.676C105.331 7.204 105.207 6.832 104.959 6.56C104.711 6.28 104.383 6.14 103.975 6.14C103.743 6.14 103.531 6.184 103.339 6.272C103.155 6.36 102.995 6.476 102.859 6.62C102.723 6.764 102.615 6.928 102.535 7.112C102.455 7.296 102.403 7.484 102.379 7.676H105.331ZM112.027 11H111.031V8.54H108.727V11H107.731V5.432H108.727V7.7H111.031V5.432H112.027V11ZM114.559 7.484H117.199V8.42H114.559V7.484ZM88.0274 20H87.0314V17.54H84.7274V20H83.7314V14.432H84.7274V16.7H87.0314V14.432H88.0274V20ZM94.1354 14.432V20H93.1634V15.752C92.9474 16.024 92.7194 16.344 92.4794 16.712C92.2474 17.08 92.0114 17.46 91.7714 17.852C91.5394 18.236 91.3154 18.616 91.0994 18.992C90.8834 19.368 90.6914 19.704 90.5234 20H89.6354V14.432H90.5954V18.44C90.7794 18.128 90.9794 17.792 91.1954 17.432C91.4114 17.064 91.6354 16.7 91.8674 16.34C92.0994 15.972 92.3314 15.624 92.5634 15.296C92.7954 14.96 93.0234 14.672 93.2474 14.432H94.1354ZM97.7354 16.94C97.9514 17.1 98.1954 17.304 98.4674 17.552C98.7394 17.792 99.0074 18.052 99.2714 18.332C99.5434 18.612 99.7994 18.9 100.039 19.196C100.279 19.484 100.471 19.752 100.615 20H99.4394C99.2874 19.752 99.0994 19.5 98.8754 19.244C98.6514 18.98 98.4114 18.728 98.1554 18.488C97.9074 18.248 97.6554 18.028 97.3994 17.828C97.1514 17.628 96.9274 17.46 96.7274 17.324V20H95.7314V14.432H96.7274V16.76C97.1674 16.376 97.6074 15.996 98.0474 15.62C98.4874 15.236 98.8834 14.84 99.2354 14.432H100.399C100.055 14.84 99.6394 15.26 99.1514 15.692C98.6714 16.124 98.1994 16.54 97.7354 16.94Z" fill="black"/>
<path d="M24.3411 20.0092V8.60851L32.2213 20.0092H34.0864V3.6892H31.755V15.1831L23.8048 3.6892L21.9863 3.66588V20.0092H24.3411Z" fill="black"/>
<path d="M39.0041 17.6544V6.06725H40.787C44.5639 6.06725 46.4757 8.98153 46.4757 11.8725C46.4757 14.7635 44.5639 17.6544 40.787 17.6544H39.0041ZM36.6494 3.71251V20.0092H40.787C46.1259 20.0092 48.8071 15.9525 48.8071 11.8725C48.8071 7.7925 46.1259 3.71251 40.787 3.71251H36.6494Z" fill="black"/>
<path d="M53.3162 13.0382H60.7068V10.6602H53.3162V6.06725H60.87V3.71251H50.9382V20.0092H60.8934V17.6544H53.3162V13.0382Z" fill="black"/>
<path d="M66.0881 12.8517L72.0332 20.0092H75.0874L69.9349 13.8775C72.7326 13.3879 74.1548 11.1964 74.1548 8.88828C74.1548 6.3004 72.3829 3.6892 68.8392 3.6892H62.894V20.0092H65.2254V6.06725H68.8392C70.8209 6.06725 71.8001 7.48943 71.8001 8.88828C71.8001 10.3105 70.8209 11.7326 68.8392 11.7326H66.0881V12.8517Z" fill="black"/>
<mask id="path-3-inside-1" fill="white">
<path fill-rule="evenodd" clip-rule="evenodd" d="M12.7283 9.81825C11.9213 9.48626 10.959 9.64803 10.3035 10.3036C9.64794 10.9591 9.48617 11.9214 9.81816 12.7284L10.366 12.1806C10.2693 11.6925 10.4101 11.1667 10.7884 10.7884C11.1666 10.4102 11.6924 10.2694 12.1805 10.3661L12.7283 9.81825Z"/>
</mask>
<path fill-rule="evenodd" clip-rule="evenodd" d="M12.7283 9.81825C11.9213 9.48626 10.959 9.64803 10.3035 10.3036C9.64794 10.9591 9.48617 11.9214 9.81816 12.7284L10.366 12.1806C10.2693 11.6925 10.4101 11.1667 10.7884 10.7884C11.1666 10.4102 11.6924 10.2694 12.1805 10.3661L12.7283 9.81825Z" fill="#FC121B"/>
<path d="M12.7283 9.81825L13.2132 10.3031L13.9407 9.57558L12.9892 9.18411L12.7283 9.81825ZM9.81816 12.7284L9.18402 12.9893L9.57549 13.9408L10.303 13.2133L9.81816 12.7284ZM10.366 12.1806L10.8508 12.6654L11.1098 12.4065L11.0386 12.0473L10.366 12.1806ZM12.1805 10.3661L12.0473 11.0387L12.4064 11.1098L12.6654 10.8509L12.1805 10.3661ZM12.9892 9.18411C11.9353 8.75051 10.6766 8.96069 9.81861 9.81869L10.7884 10.7884C11.2414 10.3354 11.9074 10.222 12.4674 10.4524L12.9892 9.18411ZM9.81861 9.81869C8.9606 10.6767 8.75042 11.9354 9.18402 12.9893L10.4523 12.4675C10.2219 11.9075 10.3353 11.2415 10.7884 10.7884L9.81861 9.81869ZM9.8811 11.6957L9.33329 12.2435L10.303 13.2133L10.8508 12.6654L9.8811 11.6957ZM10.3035 10.3036C9.75665 10.8504 9.5541 11.6108 9.69332 12.3138L11.0386 12.0473C10.9845 11.7742 11.0635 11.483 11.2732 11.2733L10.3035 10.3036ZM12.3137 9.69341C11.6107 9.55418 10.8503 9.75674 10.3035 10.3036L11.2732 11.2733C11.4829 11.0636 11.7741 10.9846 12.0473 11.0387L12.3137 9.69341ZM12.2434 9.33338L11.6956 9.88119L12.6654 10.8509L13.2132 10.3031L12.2434 9.33338Z" fill="#FC121B" mask="url(#path-3-inside-1)"/>
<mask id="path-5-inside-2" fill="white">
<path fill-rule="evenodd" clip-rule="evenodd" d="M13.2434 9.30317C12.1423 8.71968 10.7458 8.89152 9.81868 9.81869C8.89152 10.7459 8.71968 12.1423 9.30316 13.2434L9.55849 12.9881C9.10189 12.0323 9.26943 10.8528 10.0611 10.0611C10.8528 9.26944 12.0323 9.10189 12.9881 9.55849L13.2434 9.30317Z"/>
</mask>
<path fill-rule="evenodd" clip-rule="evenodd" d="M13.2434 9.30317C12.1423 8.71968 10.7458 8.89152 9.81868 9.81869C8.89152 10.7459 8.71968 12.1423 9.30316 13.2434L9.55849 12.9881C9.10189 12.0323 9.26943 10.8528 10.0611 10.0611C10.8528 9.26944 12.0323 9.10189 12.9881 9.55849L13.2434 9.30317Z" fill="#F85D1F"/>
<path d="M13.2434 9.30317L13.4859 9.5456L13.814 9.21748L13.404 9.00021L13.2434 9.30317ZM9.30316 13.2434L9.00021 13.404L9.21748 13.814L9.5456 13.4859L9.30316 13.2434ZM9.55849 12.9881L9.80092 13.2305L9.97237 13.0591L9.86786 12.8403L9.55849 12.9881ZM12.9881 9.55849L12.8403 9.86786L13.0591 9.97237L13.2305 9.80093L12.9881 9.55849ZM13.404 9.00021C12.1736 8.34822 10.6129 8.53965 9.57625 9.57625L10.0611 10.0611C10.8788 9.2434 12.1111 9.09114 13.0829 9.60612L13.404 9.00021ZM9.57625 9.57625C8.53964 10.6129 8.34822 12.1736 9.00021 13.404L9.60611 13.0829C9.09114 12.1111 9.2434 10.8788 10.0611 10.0611L9.57625 9.57625ZM9.31605 12.7457L9.06072 13.001L9.5456 13.4859L9.80092 13.2305L9.31605 12.7457ZM9.81868 9.81869C8.92106 10.7163 8.73185 12.0531 9.24912 13.1359L9.86786 12.8403C9.47193 12.0115 9.61781 10.9893 10.3036 10.3036L9.81868 9.81869ZM13.1359 9.24912C12.0531 8.73186 10.7163 8.92107 9.81868 9.81869L10.3036 10.3036C10.9893 9.61781 12.0115 9.47193 12.8403 9.86786L13.1359 9.24912ZM13.001 9.06073L12.7457 9.31606L13.2305 9.80093L13.4859 9.5456L13.001 9.06073Z" fill="#F85D1F" mask="url(#path-5-inside-2)"/>
<mask id="path-7-inside-3" fill="white">
<path fill-rule="evenodd" clip-rule="evenodd" d="M14.7366 7.81003C12.7968 6.44461 10.0989 6.62929 8.36412 8.36407C6.62934 10.0989 6.44466 12.7967 7.81008 14.7366L8.30352 14.2431C7.20106 12.5791 7.38288 10.3151 8.84899 8.84894C10.3151 7.38283 12.5792 7.20101 14.2432 8.30347L14.7366 7.81003Z"/>
</mask>
<path fill-rule="evenodd" clip-rule="evenodd" d="M14.7366 7.81003C12.7968 6.44461 10.0989 6.62929 8.36412 8.36407C6.62934 10.0989 6.44466 12.7967 7.81008 14.7366L8.30352 14.2431C7.20106 12.5791 7.38288 10.3151 8.84899 8.84894C10.3151 7.38283 12.5792 7.20101 14.2432 8.30347L14.7366 7.81003Z" fill="#F4C52E"/>
<path d="M14.7366 7.81003L15.2215 8.2949L15.7979 7.7185L15.1313 7.2493L14.7366 7.81003ZM7.81008 14.7366L7.24934 15.1313L7.71854 15.7979L8.29495 15.2215L7.81008 14.7366ZM8.30352 14.2431L8.78839 14.728L9.18473 14.3317L8.87516 13.8644L8.30352 14.2431ZM14.2432 8.30347L13.8645 8.87511L14.3317 9.18468L14.7281 8.78834L14.2432 8.30347ZM15.1313 7.2493C12.9235 5.69526 9.8538 5.90464 7.87924 7.8792L8.84899 8.84894C10.344 7.35394 12.6701 7.19396 14.3419 8.37076L15.1313 7.2493ZM7.87924 7.8792C5.90469 9.85375 5.69531 12.9235 7.24934 15.1313L8.37081 14.3419C7.19401 12.67 7.35399 10.3439 8.84899 8.84894L7.87924 7.8792ZM7.81864 13.7583L7.3252 14.2517L8.29495 15.2215L8.78839 14.728L7.81864 13.7583ZM8.36412 8.36407C6.66287 10.0653 6.45286 12.6913 7.73188 14.6219L8.87516 13.8644C7.94925 12.4669 8.1029 10.5648 9.33386 9.33382L8.36412 8.36407ZM14.6219 7.73183C12.6914 6.45282 10.0654 6.66282 8.36412 8.36407L9.33386 9.33382C10.5648 8.10285 12.4669 7.94921 13.8645 8.87511L14.6219 7.73183ZM14.2518 7.32516L13.7583 7.8186L14.7281 8.78834L15.2215 8.2949L14.2518 7.32516Z" fill="#F4C52E" mask="url(#path-7-inside-3)"/>
<mask id="path-9-inside-4" fill="white">
<path fill-rule="evenodd" clip-rule="evenodd" d="M15.2279 7.31872C13.0141 5.68915 9.88237 5.87598 7.87915 7.87919C5.87594 9.8824 5.68912 13.0142 7.31868 15.2279L7.56413 14.9824C6.06675 12.9055 6.25257 9.99065 8.12159 8.12163C9.99061 6.2526 12.9054 6.06678 14.9824 7.56416L15.2279 7.31872Z"/>
</mask>
<path fill-rule="evenodd" clip-rule="evenodd" d="M15.2279 7.31872C13.0141 5.68915 9.88237 5.87598 7.87915 7.87919C5.87594 9.8824 5.68912 13.0142 7.31868 15.2279L7.56413 14.9824C6.06675 12.9055 6.25257 9.99065 8.12159 8.12163C9.99061 6.2526 12.9054 6.06678 14.9824 7.56416L15.2279 7.31872Z" fill="#8AB65A"/>
<path d="M15.2279 7.31872L15.4703 7.56115L15.7524 7.27909L15.4311 7.0426L15.2279 7.31872ZM7.31868 15.2279L7.04257 15.4311L7.27905 15.7524L7.56112 15.4703L7.31868 15.2279ZM7.56413 14.9824L7.80656 15.2249L8.01285 15.0186L7.84224 14.7819L7.56413 14.9824ZM14.9824 7.56416L14.7819 7.84228L15.0186 8.01289L15.2249 7.8066L14.9824 7.56416ZM15.4311 7.0426C13.083 5.3141 9.76156 5.51191 7.63672 7.63675L8.12159 8.12162C10.0032 6.24004 12.9453 6.06421 15.0246 7.59483L15.4311 7.0426ZM7.63672 7.63675C5.51188 9.76159 5.31406 13.083 7.04257 15.4311L7.5948 15.0246C6.06418 12.9453 6.24001 10.0032 8.12159 8.12162L7.63672 7.63675ZM7.32169 14.74L7.07625 14.9855L7.56112 15.4703L7.80656 15.2249L7.32169 14.74ZM7.87916 7.87919C5.88932 9.86903 5.69187 12.9718 7.28601 15.183L7.84224 14.7819C6.44163 12.8392 6.61582 10.1123 8.36403 8.36406L7.87916 7.87919ZM15.1829 7.28604C12.9717 5.6919 9.86899 5.88935 7.87916 7.87919L8.36403 8.36406C10.1122 6.61586 12.8392 6.44167 14.7819 7.84228L15.1829 7.28604ZM14.9854 7.07628L14.74 7.32172L15.2249 7.8066L15.4703 7.56115L14.9854 7.07628Z" fill="#8AB65A" mask="url(#path-9-inside-4)"/>
<mask id="path-11-inside-5" fill="white">
<path fill-rule="evenodd" clip-rule="evenodd" d="M6.23122 16.3154L5.36418 17.1825C2.67208 13.8831 2.86393 9.01549 5.93972 5.93969C9.01552 2.8639 13.8832 2.67205 17.1825 5.36415L16.3154 6.23119C13.4261 4.03412 9.34888 4.22759 6.78825 6.78822C4.22762 9.34885 4.03415 13.4261 6.23122 16.3154Z"/>
</mask>
<path fill-rule="evenodd" clip-rule="evenodd" d="M6.23122 16.3154L5.36418 17.1825C2.67208 13.8831 2.86393 9.01549 5.93972 5.93969C9.01552 2.8639 13.8832 2.67205 17.1825 5.36415L16.3154 6.23119C13.4261 4.03412 9.34888 4.22759 6.78825 6.78822C4.22762 9.34885 4.03415 13.4261 6.23122 16.3154Z" fill="#1AA5B8"/>
<path d="M6.23122 16.3154L7.4434 17.5276L8.50177 16.4692L7.5958 15.2778L6.23122 16.3154ZM5.36418 17.1825L4.03594 18.2662L5.23511 19.7359L6.57636 18.3946L5.36418 17.1825ZM17.1825 5.36415L18.3947 6.57633L19.7359 5.23508L18.2663 4.03591L17.1825 5.36415ZM16.3154 6.23119L15.2778 7.59577L16.4693 8.50174L17.5276 7.44337L16.3154 6.23119ZM5.01903 15.1032L4.15199 15.9703L6.57636 18.3946L7.4434 17.5276L5.01903 15.1032ZM6.69241 16.0987C4.55089 13.4741 4.70457 9.59921 7.15191 7.15188L4.72754 4.72751C1.02329 8.43176 0.793276 14.2922 4.03594 18.2662L6.69241 16.0987ZM7.15191 7.15188C9.59924 4.70454 13.4741 4.55086 16.0987 6.69238L18.2663 4.03591C14.2922 0.793248 8.43179 1.02326 4.72754 4.72751L7.15191 7.15188ZM15.9703 4.15196L15.1033 5.019L17.5276 7.44337L18.3947 6.57633L15.9703 4.15196ZM17.3531 4.8666C13.8117 2.17371 8.76967 2.38243 5.57607 5.57604L8.00043 8.00041C9.92809 6.07275 13.0405 5.89452 15.2778 7.59577L17.3531 4.8666ZM5.57607 5.57604C2.38246 8.76965 2.17374 13.8116 4.86663 17.353L7.5958 15.2778C5.89455 13.0405 6.07278 9.92806 8.00043 8.00041L5.57607 5.57604Z" fill="#1AA5B8" mask="url(#path-11-inside-5)"/>
<path fill-rule="evenodd" clip-rule="evenodd" d="M6.56592 18.4052C9.81925 21.1572 14.7225 20.9158 17.8192 17.8191C20.9159 14.7224 21.1573 9.81914 18.4053 6.56581L16.6993 8.27173C18.4867 10.5494 18.3145 13.9297 16.1221 16.122C13.9298 18.3144 10.5495 18.4866 8.27185 16.6992L6.56592 18.4052Z" fill="black"/>
</svg>
