<svg width="76" height="24" viewBox="0 0 76 24" fill="none" xmlns="http://www.w3.org/2000/svg">
<path d="M24.4615 20.0092V8.60852L32.3417 20.0092H34.2068V3.68921H31.8754V15.1831L23.9252 3.68921L22.1067 3.66589V20.0092H24.4615Z" fill="black"/>
<path d="M39.1245 17.6545V6.06726H40.9074C44.6843 6.06726 46.5961 8.98154 46.5961 11.8725C46.5961 14.7635 44.6843 17.6545 40.9074 17.6545H39.1245ZM36.7698 3.71252V20.0092H40.9074C46.2464 20.0092 48.9275 15.9525 48.9275 11.8725C48.9275 7.79251 46.2464 3.71252 40.9074 3.71252H36.7698Z" fill="black"/>
<path d="M53.4366 13.0382H60.8273V10.6602H53.4366V6.06726H60.9904V3.71252H51.0586V20.0092H61.0138V17.6545H53.4366V13.0382Z" fill="black"/>
<path d="M66.2085 12.8517L72.1536 20.0092H75.2078L70.0553 13.8775C72.8531 13.3879 74.2752 11.1964 74.2752 8.88829C74.2752 6.30041 72.5033 3.68921 68.9596 3.68921H63.0144V20.0092H65.3458V6.06726H68.9596C70.9413 6.06726 71.9205 7.48944 71.9205 8.88829C71.9205 10.3105 70.9413 11.7326 68.9596 11.7326H66.2085V12.8517Z" fill="black"/>
<mask id="path-2-inside-1" fill="white">
<path fill-rule="evenodd" clip-rule="evenodd" d="M12.849 9.81826C12.042 9.48627 11.0797 9.64804 10.4241 10.3036C9.76861 10.9591 9.60683 11.9214 9.93883 12.7284L10.4866 12.1806C10.39 11.6925 10.5308 11.1667 10.909 10.7884C11.2873 10.4102 11.8131 10.2694 12.3011 10.3661L12.849 9.81826Z"/>
</mask>
<path fill-rule="evenodd" clip-rule="evenodd" d="M12.849 9.81826C12.042 9.48627 11.0797 9.64804 10.4241 10.3036C9.76861 10.9591 9.60683 11.9214 9.93883 12.7284L10.4866 12.1806C10.39 11.6925 10.5308 11.1667 10.909 10.7884C11.2873 10.4102 11.8131 10.2694 12.3011 10.3661L12.849 9.81826Z" fill="#FC121B"/>
<path d="M12.849 9.81826L13.3338 10.3031L14.0614 9.57559L13.1099 9.18412L12.849 9.81826ZM9.93883 12.7284L9.30469 12.9893L9.69616 13.9408L10.4237 13.2133L9.93883 12.7284ZM10.4866 12.1806L10.9715 12.6655L11.2304 12.4065L11.1593 12.0474L10.4866 12.1806ZM12.3011 10.3661L12.1679 11.0387L12.5271 11.1099L12.786 10.8509L12.3011 10.3661ZM13.1099 9.18412C12.0559 8.75052 10.7973 8.9607 9.93927 9.8187L10.909 10.7885C11.3621 10.3354 12.0281 10.222 12.5881 10.4524L13.1099 9.18412ZM9.93927 9.8187C9.08127 10.6767 8.87109 11.9354 9.30469 12.9893L10.573 12.4675C10.3426 11.9075 10.4559 11.2415 10.909 10.7885L9.93927 9.8187ZM10.0018 11.6957L9.45395 12.2435L10.4237 13.2133L10.9715 12.6655L10.0018 11.6957ZM10.4241 10.3036C9.87732 10.8504 9.67476 11.6108 9.81399 12.3138L11.1593 12.0474C11.1052 11.7742 11.1842 11.483 11.3939 11.2733L10.4241 10.3036ZM12.4344 9.69342C11.7314 9.5542 10.971 9.75675 10.4241 10.3036L11.3939 11.2733C11.6036 11.0636 11.8947 10.9846 12.1679 11.0387L12.4344 9.69342ZM12.3641 9.33339L11.8163 9.8812L12.786 10.8509L13.3338 10.3031L12.3641 9.33339Z" fill="#FC121B" mask="url(#path-2-inside-1)"/>
<mask id="path-4-inside-2" fill="white">
<path fill-rule="evenodd" clip-rule="evenodd" d="M13.364 9.30316C12.2629 8.71967 10.8664 8.89151 9.93928 9.81868C9.01212 10.7458 8.84028 12.1423 9.42376 13.2434L9.67909 12.9881C9.22249 12.0323 9.39003 10.8528 10.1817 10.0611C10.9734 9.26943 12.1529 9.10188 13.1087 9.55848L13.364 9.30316Z"/>
</mask>
<path fill-rule="evenodd" clip-rule="evenodd" d="M13.364 9.30316C12.2629 8.71967 10.8664 8.89151 9.93928 9.81868C9.01212 10.7458 8.84028 12.1423 9.42376 13.2434L9.67909 12.9881C9.22249 12.0323 9.39003 10.8528 10.1817 10.0611C10.9734 9.26943 12.1529 9.10188 13.1087 9.55848L13.364 9.30316Z" fill="#F85D1F"/>
<path d="M13.364 9.30316L13.6065 9.54559L13.9346 9.21747L13.5246 9.0002L13.364 9.30316ZM9.42376 13.2434L9.12081 13.404L9.33808 13.814L9.6662 13.4859L9.42376 13.2434ZM9.67909 12.9881L9.92152 13.2305L10.093 13.0591L9.98846 12.8403L9.67909 12.9881ZM13.1087 9.55848L12.9609 9.86785L13.1797 9.97236L13.3511 9.80092L13.1087 9.55848ZM13.5246 9.0002C12.2942 8.34821 10.7334 8.53963 9.69684 9.57624L10.1817 10.0611C10.9994 9.24339 12.2317 9.09113 13.2035 9.60611L13.5246 9.0002ZM9.69684 9.57624C8.66024 10.6128 8.46882 12.1736 9.12081 13.404L9.72671 13.0829C9.21173 12.1111 9.36399 10.8788 10.1817 10.0611L9.69684 9.57624ZM9.43665 12.7457L9.18132 13.001L9.6662 13.4859L9.92152 13.2305L9.43665 12.7457ZM9.93928 9.81868C9.04166 10.7163 8.85245 12.0531 9.36972 13.1359L9.98846 12.8403C9.59253 12.0115 9.73841 10.9893 10.4242 10.3035L9.93928 9.81868ZM13.2565 9.24911C12.1737 8.73184 10.8369 8.92105 9.93928 9.81868L10.4242 10.3035C11.1099 9.6178 12.1321 9.47192 12.9609 9.86785L13.2565 9.24911ZM13.1216 9.06072L12.8663 9.31604L13.3511 9.80092L13.6065 9.54559L13.1216 9.06072Z" fill="#F85D1F" mask="url(#path-4-inside-2)"/>
<mask id="path-6-inside-3" fill="white">
<path fill-rule="evenodd" clip-rule="evenodd" d="M14.8572 7.81002C12.9173 6.4446 10.2194 6.62928 8.48466 8.36406C6.74988 10.0988 6.5652 12.7967 7.93062 14.7366L8.42406 14.2431C7.3216 12.5791 7.50343 10.315 8.96953 8.84894C10.4356 7.38283 12.6997 7.201 14.3637 8.30346L14.8572 7.81002Z"/>
</mask>
<path fill-rule="evenodd" clip-rule="evenodd" d="M14.8572 7.81002C12.9173 6.4446 10.2194 6.62928 8.48466 8.36406C6.74988 10.0988 6.5652 12.7967 7.93062 14.7366L8.42406 14.2431C7.3216 12.5791 7.50343 10.315 8.96953 8.84894C10.4356 7.38283 12.6997 7.201 14.3637 8.30346L14.8572 7.81002Z" fill="#F4C52E"/>
<path d="M14.8572 7.81002L15.342 8.2949L15.9185 7.71849L15.2519 7.24929L14.8572 7.81002ZM7.93062 14.7366L7.36989 15.1313L7.83909 15.7979L8.4155 15.2214L7.93062 14.7366ZM8.42406 14.2431L8.90893 14.728L9.30527 14.3317L8.9957 13.8644L8.42406 14.2431ZM14.3637 8.30346L13.985 8.8751L14.4523 9.18467L14.8486 8.78833L14.3637 8.30346ZM15.2519 7.24929C13.0441 5.69525 9.97435 5.90463 7.99979 7.87919L8.96953 8.84894C10.4645 7.35393 12.7906 7.19395 14.4625 8.37076L15.2519 7.24929ZM7.99979 7.87919C6.02523 9.85375 5.81585 12.9235 7.36989 15.1313L8.49136 14.3419C7.31455 12.67 7.47453 10.3439 8.96953 8.84894L7.99979 7.87919ZM7.93919 13.7583L7.44575 14.2517L8.4155 15.2214L8.90893 14.728L7.93919 13.7583ZM8.48466 8.36406C6.78341 10.0653 6.57341 12.6913 7.85242 14.6219L8.9957 13.8644C8.0698 12.4669 8.22344 10.5648 9.45441 9.33381L8.48466 8.36406ZM14.7425 7.73182C12.8119 6.45281 10.1859 6.66281 8.48466 8.36406L9.45441 9.33381C10.6854 8.10284 12.5875 7.9492 13.985 8.8751L14.7425 7.73182ZM14.3723 7.32515L13.8789 7.81859L14.8486 8.78833L15.342 8.2949L14.3723 7.32515Z" fill="#F4C52E" mask="url(#path-6-inside-3)"/>
<mask id="path-8-inside-4" fill="white">
<path fill-rule="evenodd" clip-rule="evenodd" d="M15.3485 7.31871C13.1348 5.68914 10.003 5.87596 7.99978 7.87918C5.99657 9.88239 5.80975 13.0142 7.43931 15.2279L7.68475 14.9824C6.18738 12.9055 6.3732 9.99064 8.24222 8.12161C10.1112 6.25259 13.0261 6.06677 15.103 7.56415L15.3485 7.31871Z"/>
</mask>
<path fill-rule="evenodd" clip-rule="evenodd" d="M15.3485 7.31871C13.1348 5.68914 10.003 5.87596 7.99978 7.87918C5.99657 9.88239 5.80975 13.0142 7.43931 15.2279L7.68475 14.9824C6.18738 12.9055 6.3732 9.99064 8.24222 8.12161C10.1112 6.25259 13.0261 6.06677 15.103 7.56415L15.3485 7.31871Z" fill="#8AB65A"/>
<path d="M15.3485 7.31871L15.5909 7.56114L15.873 7.27907L15.5517 7.04259L15.3485 7.31871ZM7.43931 15.2279L7.1632 15.4311L7.39968 15.7524L7.68175 15.4703L7.43931 15.2279ZM7.68475 14.9824L7.92719 15.2249L8.13348 15.0186L7.96287 14.7819L7.68475 14.9824ZM15.103 7.56415L14.9025 7.84226L15.1392 8.01288L15.3455 7.80658L15.103 7.56415ZM15.5517 7.04259C13.2036 5.31409 9.88219 5.5119 7.75735 7.63674L8.24222 8.12161C10.1238 6.24003 13.0659 6.0642 15.1452 7.59482L15.5517 7.04259ZM7.75735 7.63674C5.63251 9.76158 5.43469 13.083 7.1632 15.4311L7.71543 15.0246C6.1848 12.9453 6.36063 10.0032 8.24222 8.12161L7.75735 7.63674ZM7.44232 14.74L7.19688 14.9854L7.68175 15.4703L7.92719 15.2249L7.44232 14.74ZM7.99978 7.87918C6.00995 9.86901 5.81249 12.9717 7.40664 15.1829L7.96287 14.7819C6.56226 12.8392 6.73645 10.1123 8.48466 8.36405L7.99978 7.87918ZM15.3035 7.28603C13.0923 5.69189 9.98962 5.88934 7.99978 7.87918L8.48466 8.36405C10.2329 6.61585 12.9598 6.44166 14.9025 7.84226L15.3035 7.28603ZM15.106 7.07627L14.8606 7.32171L15.3455 7.80658L15.5909 7.56114L15.106 7.07627Z" fill="#8AB65A" mask="url(#path-8-inside-4)"/>
<mask id="path-10-inside-5" fill="white">
<path fill-rule="evenodd" clip-rule="evenodd" d="M6.35178 16.3154L5.48474 17.1825C2.79265 13.8831 2.9845 9.01549 6.06029 5.9397C9.13608 2.86391 14.0037 2.67206 17.3031 5.36416L16.436 6.23119C13.5467 4.03412 9.46945 4.2276 6.90882 6.78823C4.34819 9.34886 4.15471 13.4261 6.35178 16.3154Z"/>
</mask>
<path fill-rule="evenodd" clip-rule="evenodd" d="M6.35178 16.3154L5.48474 17.1825C2.79265 13.8831 2.9845 9.01549 6.06029 5.9397C9.13608 2.86391 14.0037 2.67206 17.3031 5.36416L16.436 6.23119C13.5467 4.03412 9.46945 4.2276 6.90882 6.78823C4.34819 9.34886 4.15471 13.4261 6.35178 16.3154Z" fill="#1AA5B8"/>
<path d="M6.35178 16.3154L7.56397 17.5276L8.62234 16.4692L7.71637 15.2778L6.35178 16.3154ZM5.48474 17.1825L4.15651 18.2662L5.35568 19.7359L6.69693 18.3946L5.48474 17.1825ZM17.3031 5.36416L18.5152 6.57634L19.8565 5.23509L18.3868 4.03592L17.3031 5.36416ZM16.436 6.23119L15.3984 7.59578L16.5898 8.50175L17.6482 7.44338L16.436 6.23119ZM5.1396 15.1032L4.27256 15.9703L6.69693 18.3946L7.56397 17.5276L5.1396 15.1032ZM6.81298 16.0987C4.67145 13.4741 4.82514 9.59922 7.27247 7.15189L4.84811 4.72752C1.14386 8.43177 0.913844 14.2922 4.15651 18.2662L6.81298 16.0987ZM7.27247 7.15189C9.71981 4.70455 13.5947 4.55086 16.2193 6.69239L18.3868 4.03592C14.4127 0.793256 8.55236 1.02327 4.84811 4.72752L7.27247 7.15189ZM16.0909 4.15197L15.2238 5.01901L17.6482 7.44338L18.5152 6.57634L16.0909 4.15197ZM17.4736 4.86661C13.9322 2.17372 8.89024 2.38244 5.69664 5.57605L8.121 8.00041C10.0487 6.07276 13.1611 5.89453 15.3984 7.59578L17.4736 4.86661ZM5.69664 5.57605C2.50303 8.76965 2.29431 13.8116 4.9872 17.3531L7.71637 15.2778C6.01512 13.0405 6.19335 9.92807 8.121 8.00041L5.69664 5.57605Z" fill="#1AA5B8" mask="url(#path-10-inside-5)"/>
<path fill-rule="evenodd" clip-rule="evenodd" d="M6.68641 18.4052C9.93974 21.1572 14.843 20.9158 17.9397 17.8191C21.0364 14.7224 21.2778 9.81916 18.5258 6.56583L16.8198 8.27175C18.6072 10.5494 18.435 13.9297 16.2426 16.122C14.0503 18.3144 10.67 18.4866 8.39233 16.6993L6.68641 18.4052Z" fill="black"/>
</svg>
