<svg width="24" height="24" viewBox="0 0 24 24" fill="none" xmlns="http://www.w3.org/2000/svg">
<g style="mix-blend-mode:darken" opacity="0.04">
<rect width="24" height="24" fill="white"/>
</g>
<path opacity="0.2" d="M11.0625 15.0625C11.3333 14.7917 11.6458 14.6562 12 14.6562C12.3542 14.6562 12.6667 14.7917 12.9375 15.0625C13.2083 15.3333 13.3438 15.6458 13.3438 16C13.3438 16.3542 13.2083 16.6667 12.9375 16.9375C12.6667 17.2083 12.3542 17.3438 12 17.3438C11.6458 17.3438 11.3333 17.2083 11.0625 16.9375C10.7917 16.6667 10.6562 16.3542 10.6562 16C10.6562 15.6458 10.7917 15.3333 11.0625 15.0625ZM11.0625 11.0625C11.3333 10.7917 11.6458 10.6562 12 10.6562C12.3542 10.6562 12.6667 10.7917 12.9375 11.0625C13.2083 11.3333 13.3438 11.6458 13.3438 12C13.3438 12.3542 13.2083 12.6667 12.9375 12.9375C12.6667 13.2083 12.3542 13.3438 12 13.3438C11.6458 13.3438 11.3333 13.2083 11.0625 12.9375C10.7917 12.6667 10.6562 12.3542 10.6562 12C10.6562 11.6458 10.7917 11.3333 11.0625 11.0625ZM12.9375 8.9375C12.6667 9.20833 12.3542 9.34375 12 9.34375C11.6458 9.34375 11.3333 9.20833 11.0625 8.9375C10.7917 8.66667 10.6562 8.35417 10.6562 8C10.6562 7.64583 10.7917 7.33333 11.0625 7.0625C11.3333 6.79167 11.6458 6.65625 12 6.65625C12.3542 6.65625 12.6667 6.79167 12.9375 7.0625C13.2083 7.33333 13.3438 7.64583 13.3438 8C13.3438 8.35417 13.2083 8.66667 12.9375 8.9375Z" fill="black"/>
</svg>
